# xmcd
#
# Track frame offsets:
#	150
#	14620
#	43108
#	59517
#	77744
#	92189
#	115544
#	137248
#	149460
#
# Disc length: 2193 seconds
#
# Revision: 0
# Processed by: cddbd v1.4PL0 Copyright (c) Steve Scherf et al.
# Submitted via: dBpowerAMP V4.0
#
DISCID=7e088f09
DTITLE=New Orleans Tumbleweeds - Crawlin' Home
DYEAR=2002
DGENRE=Bluegrass
TTITLE0=Foggy Mountain Top
TTITLE1=Flowers of Edinburg
TTITLE2=Cripple Creek
TTITLE3=Walkin' Cane
TTITLE4=Rocky Top
TTITLE5=Roll in my Sweet Babies Arms
TTITLE6=Man of Constant Sorrow
TTITLE7=Get Along Home Cindy
TTITLE8=Mountain Dew
EXTD=
EXTT0=
EXTT1=
EXTT2=
EXTT3=
EXTT4=
EXTT5=
EXTT6=
EXTT7=
EXTT8=
PLAYORDER=
